HIERARCHY
ROOT Hips
{
	OFFSET 0.00000 0.00000 0.00000
	CHANNELS 6 Xposition Yposition Zposition Zrotation Yrotation Xrotation 
	JOINT LHipJoint
	{
		OFFSET 0 0 0
		CHANNELS 3 Zrotation Yrotation Xrotation
		JOINT LeftUpLeg
		{
			OFFSET 1.80322 -1.53100 0.99595
			CHANNELS 3 Zrotation Yrotation Xrotation
			JOINT LeftLeg
			{
				OFFSET 2.25177 -6.18669 0.00000
				CHANNELS 3 Zrotation Yrotation Xrotation
				JOINT LeftFoot
				{
					OFFSET 2.26601 -6.22582 0.00000
					CHANNELS 3 Zrotation Yrotation Xrotation
					JOINT LeftToeBase
					{
						OFFSET 0.23701 -0.65119 2.15848
						CHANNELS 3 Zrotation Yrotation Xrotation
						End Site
						{
							OFFSET 0.00000 -0.00000 1.12949
						}
					}
				}
			}
		}
	}
	JOINT RHipJoint
	{
		OFFSET 0 0 0
		CHANNELS 3 Zrotation Yrotation Xrotation
		JOINT RightUpLeg
		{
			OFFSET -1.93977 -1.53100 0.99595
			CHANNELS 3 Zrotation Yrotation Xrotation
			JOINT RightLeg
			{
				OFFSET -2.28036 -6.26523 0.00000
				CHANNELS 3 Zrotation Yrotation Xrotation
				JOINT RightFoot
				{
					OFFSET -2.25490 -6.19528 0.00000
					CHANNELS 3 Zrotation Yrotation Xrotation
					JOINT RightToeBase
					{
						OFFSET -0.28375 -0.77960 2.23137
						CHANNELS 3 Zrotation Yrotation Xrotation
						End Site
						{
							OFFSET -0.00000 -0.00000 1.17899
						}
					}
				}
			}
		}
	}
	JOINT LowerBack
	{
		OFFSET 0 0 0
		CHANNELS 3 Zrotation Yrotation Xrotation
		JOINT Spine
		{
			OFFSET -0.00088 2.12090 -0.02806
			CHANNELS 3 Zrotation Yrotation Xrotation
			JOINT Spine1
			{
				OFFSET -0.00286 2.09666 0.12974
				CHANNELS 3 Zrotation Yrotation Xrotation
				JOINT Neck
				{
					OFFSET 0 0 0
					CHANNELS 3 Zrotation Yrotation Xrotation
					JOINT Neck1
					{
						OFFSET 0.07328 1.83526 0.07290
						CHANNELS 3 Zrotation Yrotation Xrotation
						JOINT Head
						{
							OFFSET -0.06683 1.74974 -0.49542
							CHANNELS 3 Zrotation Yrotation Xrotation
							End Site
							{
								OFFSET -0.03398 1.85163 -0.17573
							}
						}
					}
				}
				JOINT LeftShoulder
				{
					OFFSET 0 0 0
					CHANNELS 3 Zrotation Yrotation Xrotation
					JOINT LeftArm
					{
						OFFSET 3.02113 1.18018 0.40602
						CHANNELS 3 Zrotation Yrotation Xrotation
						JOINT LeftForeArm
						{
							OFFSET 4.58538 -0.00000 -0.00000
							CHANNELS 3 Zrotation Yrotation Xrotation
							JOINT LeftHand
							{
								OFFSET 2.68935 -0.00000 -0.00000
								CHANNELS 3 Zrotation Yrotation Xrotation
								JOINT LeftFingerBase
								{
									OFFSET 0 0 0
									CHANNELS 3 Zrotation Yrotation Xrotation
									JOINT LeftHandIndex1
									{
										OFFSET 0.58506 -0.00000 -0.00000
										CHANNELS 3 Zrotation Yrotation Xrotation
										End Site
										{
											OFFSET 0.47169 -0.00000 -0.00000
										}
									}
								}
								JOINT LThumb
								{
									OFFSET 0 0 0
									CHANNELS 3 Zrotation Yrotation Xrotation
									End Site
									{
										OFFSET 0.47889 -0.00000 0.47889
									}
								}
							}
						}
					}
				}
				JOINT RightShoulder
				{
					OFFSET 0 0 0
					CHANNELS 3 Zrotation Yrotation Xrotation
					JOINT RightArm
					{
						OFFSET -2.95074 1.18843 0.31430
						CHANNELS 3 Zrotation Yrotation Xrotation
						JOINT RightForeArm
						{
							OFFSET -4.47450 -0.00000 -0.00000
							CHANNELS 3 Zrotation Yrotation Xrotation
							JOINT RightHand
							{
								OFFSET -2.93896 -0.00000 -0.00000
								CHANNELS 3 Zrotation Yrotation Xrotation
								JOINT RightFingerBase
								{
									OFFSET 0 0 0
									CHANNELS 3 Zrotation Yrotation Xrotation
									JOINT RightHandIndex1
									{
										OFFSET -0.40509 -0.00000 -0.00000
										CHANNELS 3 Zrotation Yrotation Xrotation
										End Site
										{
											OFFSET -0.32660 -0.00000 -0.00000
										}
									}
								}
								JOINT RThumb
								{
									OFFSET 0 0 0
									CHANNELS 3 Zrotation Yrotation Xrotation
									End Site
									{
										OFFSET -0.33158 -0.00000 0.33158
									}
								}
							}
						}
					}
				}
			}
		}
	}
}
MOTION
Frames: 12
Frame Time: .0083333
0.3909 15.754 -9.4741 0 0 0 0 0 0 -21 0 0 0 0 0 0 0 0 0 0 0 0 0 0 21 0 0 0 0 0 0 0 0 0 0 0 0 0 0 0 0 0 0 0 0 0 0 -16 0 0 21 0 0 11 0 0 0 -8 0 0 0 0 0 0 0 0 0 0 0 0 0 0 0 0 0 0 0 0 8 0 0 0 0 0 0 0 0 0 0 0 0 0 0 0 0 0
0.3909 15.7540 -9.4741 -0.6597 -6.1433 12.1947 0.0000 0.0000 0.0000 -20.3026 -14.4157 -12.7978 1.4387 7.5832 21.4551 0.4911 11.5269 -21.9861 0.0879 1.9124 5.2636 0.0000 0.0000 0.0000 17.0412 15.1101 -14.5621 -1.7286 -8.2762 23.5561 -0.4768 -12.4053 -22.7895 -0.1578 2.5594 -7.0545 0.3386 -0.6122 -6.4853 0.3011 -0.8394 -6.8221 0.0934 -0.4352 -3.4163 7.0436 1.3596 -14.4655 -3.1900 0.8743 40.0749 -2.5660 0.9513 17.1044 -0.0000 -0.0000 0.0000 -87.0749 13.2591 18.3395 16.8484 -26.6575 -4.0191 -0.0000 -0.0000 21.9090 4.5464 12.4551 0.9825 -7.1250 0.0000 -0.0000 -20.1116 41.5755 1.7793 -0.0000 -0.0000 0.0000 83.5928 -7.1544 27.2791 -14.3185 23.1881 -2.9523 0.0000 0.0000 10.1193 -11.0416 -7.0230 1.3667 7.1250 -0.0000 -0.0000 13.2729 -36.8402 2.7231
0.3994 15.7527 -9.4697 -0.6438 -6.1691 12.2399 0.0000 0.0000 0.0000 -20.3531 -14.3390 -12.8789 1.4421 7.5920 21.4815 0.4999 11.4554 -21.9953 0.0896 1.9301 5.3125 0.0000 0.0000 0.0000 16.9575 15.0174 -14.6176 -1.7295 -8.2784 23.5629 -0.5398 -12.1797 -23.1242 -0.1927 2.8272 -7.7980 0.3421 -0.6179 -6.5107 0.2856 -0.8477 -6.7621 0.0743 -0.4398 -3.3395 7.0376 1.3325 -14.5695 -3.1768 0.8182 40.0462 -2.5691 0.9278 17.1107 -0.0000 -0.0000 0.0000 -87.0561 13.1620 18.3905 16.8705 -26.6867 -4.0290 -0.0000 -0.0000 21.8713 4.5168 12.4510 0.9758 -7.1250 0.0000 -0.0000 -20.1353 41.5689 1.7851 -0.0000 -0.0000 0.0000 83.6002 -7.0185 27.2630 -14.3584 23.2447 -2.9681 0.0000 0.0000 10.0265 -11.0402 -6.9319 1.3489 7.1250 -0.0000 -0.0000 13.2562 -36.7500 2.7495
0.4137 15.7522 -9.4643 -0.5941 -6.1979 12.2932 0.0000 0.0000 0.0000 -20.4606 -14.3413 -12.9550 1.4515 7.6155 21.5521 0.5159 11.3898 -22.0787 0.0999 2.0380 5.6108 0.0000 0.0000 0.0000 16.8103 14.6332 -14.7812 -1.7279 -8.2747 23.5516 -0.6198 -11.7002 -23.3472 -0.2426 3.1699 -8.7521 0.3449 -0.6506 -6.3758 0.2786 -0.8910 -6.9112 0.0672 -0.4624 -3.5713 7.0580 1.3289 -14.2123 -3.1725 0.8315 40.0208 -2.5653 0.9361 17.0060 -0.0000 0.0000 0.0000 -87.0823 13.5511 18.5129 17.0076 -26.8677 -4.0908 -0.0000 -0.0000 21.7501 4.4648 12.5699 0.9736 -7.1250 0.0000 -0.0000 -20.2177 41.6757 1.7371 -0.0000 0.0000 0.0000 83.5494 -7.3982 27.4431 -14.5387 23.4996 -3.0396 0.0000 0.0000 9.9507 -11.0730 -6.9009 1.3470 7.1250 -0.0000 -0.0000 13.2232 -36.7212 2.7518
0.4190 15.7504 -9.4609 -0.6418 -6.2696 12.3469 0.0000 0.0000 0.0000 -20.4196 -14.2968 -13.0602 1.4613 7.6399 21.6257 0.5246 11.3669 -22.1377 0.1045 2.0842 5.7384 0.0000 0.0000 0.0000 16.7985 14.8166 -14.7424 -1.7262 -8.2708 23.5395 -0.6719 -11.7097 -23.8125 -0.2919 3.4746 -9.6030 0.3332 -0.6189 -6.4066 0.3041 -0.8479 -6.7763 0.0998 -0.4392 -3.4118 6.9717 1.2858 -14.5702 -3.1327 0.7466 40.0155 -2.5493 0.8927 17.0869 -0.0000 -0.0000 0.0000 -87.0905 13.2017 18.5207 16.9091 -26.7378 -4.0464 -0.0000 -0.0000 21.8578 4.4506 12.4412 0.9607 -7.1250 0.0000 -0.0000 -20.1884 41.5534 1.7983 -0.0000 -0.0000 0.0000 83.5007 -7.0809 27.4447 -14.5228 23.4771 -3.0333 0.0000 0.0000 9.7134 -11.1932 -6.8149 1.3451 7.1250 -0.0000 -0.0000 13.1073 -36.6433 2.7523
0.4285 15.7489 -9.4564 -0.6518 -6.3220 12.3967 0.0000 0.0000 0.0000 -20.4403 -14.2599 -13.1578 1.4722 7.6673 21.7079 0.5375 11.3163 -22.2071 0.1100 2.1384 5.8883 0.0000 0.0000 0.0000 16.7337 14.7512 -14.7836 -1.7243 -8.2665 23.5265 -0.7370 -11.5158 -24.1808 -0.3471 3.7854 -10.4738 0.3396 -0.6152 -6.3818 0.3134 -0.8431 -6.7474 0.1061 -0.4368 -3.3952 6.9377 1.2618 -14.6304 -3.1132 0.7065 39.9863 -2.5413 0.8726 17.0826 -0.0000 -0.0000 0.0000 -87.1023 13.1497 18.5806 16.9161 -26.7470 -4.0495 -0.0000 -0.0000 21.8568 4.4338 12.4221 0.9556 -7.1250 0.0000 -0.0000 -20.1964 41.5338 1.8094 -0.0000 -0.0000 0.0000 83.4605 -7.0313 27.4816 -14.5806 23.5586 -3.0563 0.0000 0.0000 9.5682 -11.2570 -6.7468 1.3395 7.1250 -0.0000 -0.0000 13.0417 -36.5795 2.7587
0.4384 15.7470 -9.4517 -0.6680 -6.3798 12.4429 0.0000 0.0000 0.0000 -20.4561 -14.2225 -13.2642 1.4869 7.7038 21.8181 0.5529 11.2607 -22.2946 0.1150 2.1866 6.0217 0.0000 0.0000 0.0000 16.6752 14.6837 -14.8146 -1.7212 -8.2594 23.5049 -0.8024 -11.3301 -24.5533 -0.4065 4.0932 -11.3390 0.3518 -0.6095 -6.3499 0.3248 -0.8356 -6.7171 0.1113 -0.4332 -3.3811 6.9106 1.2393 -14.6879 -3.1019 0.6702 39.9486 -2.5371 0.8537 17.0731 0.0000 -0.0000 0.0000 -87.1147 13.0994 18.6482 16.9253 -26.7592 -4.0537 -0.0000 -0.0000 21.8530 4.4294 12.4016 0.9531 -7.1250 0.0000 -0.0000 -20.1936 41.5142 1.8194 0.0000 -0.0000 0.0000 83.4201 -6.9830 27.4962 -14.6352 23.6354 -3.0782 0.0000 0.0000 9.4403 -11.3237 -6.6653 1.3315 7.1250 -0.0000 -0.0000 12.9712 -36.5026 2.7681
0.4486 15.7448 -9.4467 -0.6899 -6.4440 12.4813 0.0000 0.0000 0.0000 -20.4707 -14.1725 -13.3597 1.5010 7.7385 21.9225 0.5685 11.2040 -22.3816 0.1190 2.2237 6.1243 0.0000 0.0000 0.0000 16.6232 14.6140 -14.8402 -1.7195 -8.2555 23.4930 -0.8695 -11.1487 -24.9367 -0.4682 4.3888 -12.1732 0.3687 -0.6016 -6.3124 0.3382 -0.8253 -6.6800 0.1162 -0.4284 -3.3631 6.8892 1.2188 -14.7496 -3.0967 0.6373 39.9020 -2.5360 0.8361 17.0602 0.0000 0.0000 0.0000 -87.1294 13.0442 18.7191 16.9376 -26.7754 -4.0592 -0.0000 -0.0000 21.8451 4.4321 12.3823 0.9522 -7.1250 0.0000 -0.0000 -20.1851 41.4963 1.8279 0.0000 0.0000 0.0000 83.3780 -6.9277 27.4853 -14.6851 23.7056 -3.0982 0.0000 0.0000 9.3258 -11.3853 -6.5774 1.3213 7.1250 -0.0000 -0.0000 12.9038 -36.4189 2.7802
0.4598 15.7421 -9.4411 -0.7096 -6.5135 12.5105 0.0000 0.0000 0.0000 -20.4950 -14.1119 -13.4461 1.5156 7.7745 22.0311 0.5853 11.1405 -22.4741 0.1219 2.2509 6.1996 0.0000 0.0000 0.0000 16.5678 14.5079 -14.8710 -1.7190 -8.2544 23.4894 -0.9389 -10.9412 -25.3083 -0.5313 4.6708 -12.9719 0.3879 -0.5946 -6.2576 0.3508 -0.8162 -6.6501 0.1192 -0.4242 -3.3623 6.8812 1.2027 -14.7857 -3.0989 0.6119 39.8473 -2.5388 0.8224 17.0369 0.0000 -0.0000 0.0000 -87.1453 13.0207 18.8068 16.9643 -26.8107 -4.0712 -0.0000 -0.0000 21.8165 4.4386 12.3787 0.9533 -7.1250 0.0000 -0.0000 -20.1785 41.4935 1.8287 0.0000 -0.0000 0.0000 83.3344 -6.9003 27.4521 -14.7398 23.7824 -3.1202 0.0000 0.0000 9.2357 -11.4309 -6.4612 1.3034 7.1250 -0.0000 -0.0000 12.8446 -36.3061 2.8030
0.4715 15.7391 -9.4353 -0.7278 -6.5905 12.5364 0.0000 0.0000 0.0000 -20.5246 -14.0472 -13.5274 1.5302 7.8101 22.1386 0.6030 11.0744 -22.5712 0.1243 2.2727 6.2600 0.0000 0.0000 0.0000 16.5088 14.3890 -14.9133 -1.7207 -8.2583 23.5014 -1.0094 -10.7231 -25.6734 -0.5956 4.9406 -13.7391 0.4039 -0.5857 -6.1978 0.3618 -0.8043 -6.6166 0.1223 -0.4186 -3.3605 6.8811 1.1876 -14.8248 -3.1021 0.5856 39.7873 -2.5435 0.8092 17.0117 0.0000 -0.0000 0.0000 -87.1567 12.9964 18.9149 16.9966 -26.8532 -4.0858 -0.0000 -0.0000 21.7718 4.4368 12.3879 0.9536 -7.1250 0.0000 -0.0000 -20.1829 41.5020 1.8247 0.0000 -0.0000 0.0000 83.2891 -6.8735 27.4024 -14.7961 23.8612 -3.1430 0.0000 0.0000 9.1389 -11.4679 -6.3312 1.2816 7.1250 -0.0000 -0.0000 12.7902 -36.1790 2.8313
0.4837 15.7359 -9.4293 -0.7423 -6.6771 12.5564 0.0000 0.0000 0.0000 -20.5627 -13.9741 -13.5977 1.5439 7.8434 22.2394 0.6215 11.0045 -22.6710 0.1261 2.2891 6.3053 0.0000 0.0000 0.0000 16.4437 14.2579 -14.9705 -1.7258 -8.2700 23.5371 -1.0791 -10.4867 -26.0123 -0.6586 5.1906 -14.4530 0.4127 -0.5759 -6.1293 0.3725 -0.7911 -6.5804 0.1294 -0.4121 -3.3606 6.8869 1.1762 -14.8714 -3.1021 0.5610 39.7269 -2.5476 0.7981 16.9884 0.0000 0.0000 0.0000 -87.1680 12.9749 19.0371 17.0334 -26.9018 -4.1024 -0.0000 -0.0000 21.7154 4.4361 12.3956 0.9541 -7.1250 0.0000 -0.0000 -20.1860 41.5092 1.8212 0.0000 0.0000 0.0000 83.2371 -6.8538 27.3483 -14.8601 23.9508 -3.1689 0.0000 0.0000 9.0280 -11.4891 -6.2052 1.2586 7.1250 -0.0000 -0.0000 12.7497 -36.0550 2.8614
0.4965 15.7325 -9.4230 -0.7463 -6.7738 12.5736 0.0000 0.0000 0.0000 -20.6157 -13.8972 -13.6599 1.5564 7.8735 22.3304 0.6408 10.9298 -22.7734 0.1276 2.3031 6.3440 0.0000 0.0000 0.0000 16.3625 14.1139 -15.0552 -1.7355 -8.2919 23.6043 -1.1476 -10.2240 -26.3163 -0.7208 5.4252 -15.1253 0.4073 -0.5658 -6.0558 0.3807 -0.7770 -6.5404 0.1418 -0.4045 -3.3593 6.8976 1.1666 -14.9273 -3.0982 0.5349 39.6658 -2.5510 0.7876 16.9673 -0.0000 0.0000 0.0000 -87.1754 12.9479 19.1827 17.0711 -26.9514 -4.1195 -0.0000 -0.0000 21.6474 4.4392 12.4072 0.9556 -7.1250 0.0000 -0.0000 -20.1871 41.5204 1.8155 -0.0000 0.0000 0.0000 83.1799 -6.8339 27.2910 -14.9301 24.0487 -3.1974 0.0000 0.0000 8.9001 -11.5032 -6.0965 1.2382 7.1250 -0.0000 -0.0000 12.7184 -35.9477 2.8882
